<?xml version="1.0" encoding="UTF-8" standalone="no" ?>
<!DOCTYPE svg PUBLIC "-//W3C//DTD SVG 1.1//EN" "http://www.w3.org/Graphics/SVG/1.1/DTD/svg11.dtd">
<svg xmlns="http://www.w3.org/2000/svg" xmlns:xlink="http://www.w3.org/1999/xlink" version="1.1" width="1280" height="1024" viewBox="0 0 1280 1024" xml:space="preserve">
<desc>Created with Fabric.js 5.3.0</desc>
<defs>
</defs>
<g transform="matrix(1 0 0 1 640 512)" id="background-logo"  >
<rect style="stroke: none; stroke-width: 0; stroke-dasharray: none; stroke-linecap: butt; stroke-dashoffset: 0; stroke-linejoin: miter; stroke-miterlimit: 4; fill: rgb(0,0,0); fill-rule: nonzero; opacity: 1;"  paint-order="stroke"  x="-640" y="-512" rx="0" ry="0" width="1280" height="1024" />
</g>
<g transform="matrix(2.545420163328248 0 0 2.545420163328248 640 395.6864080388972)" id="logo-logo"  >
<g style=""  paint-order="stroke"   >
		<g transform="matrix(0.917930923744532 0 0 0.9179309237445321 0 0)"  >
<g style=""  paint-order="stroke"   >
		<g transform="matrix(1 0 0 1 0 0)"  >
<polygon style="stroke: none; stroke-width: 1; stroke-dasharray: none; stroke-linecap: butt; stroke-dashoffset: 0; stroke-linejoin: miter; stroke-miterlimit: 4; fill: rgb(255,255,255); fill-rule: nonzero; opacity: 1;"  paint-order="stroke"  points="100,100 0,100 0,95.12 95.12,95.12 95.12,-95.12 -95.12,-95.12 -95.12,0 -100,0 -100,-100 100,-100 100,100 " />
</g>
</g>
</g>
</g>
</g>
<g transform="matrix(1.9211538461538462 0 0 1.9211538461538462 658.1061657156964 724.242122701837)" id="text-logo"  >
<g style=""  paint-order="stroke"   >
		<g transform="matrix(1 0 0 1 0 0)" id="text-logo-path-0"  >
<filter id="SVGID_17055" y="-69.6031746031746%" height="239.2063492063492%" x="-23.653276005002176%" width="147.30655201000434%" >
	<feGaussianBlur in="SourceAlpha" stdDeviation="9.285714285714285"></feGaussianBlur>
	<feOffset dx="0" dy="0" result="oBlur" ></feOffset>
	<feFlood flood-color="rgb(255,255,255)" flood-opacity="1"/>
	<feComposite in2="oBlur" operator="in" />
	<feMerge>
		<feMergeNode></feMergeNode>
		<feMergeNode in="SourceGraphic"></feMergeNode>
	</feMerge>
</filter>
<path style="stroke: rgb(255,255,255); stroke-width: 2; stroke-dasharray: none; stroke-linecap: butt; stroke-dashoffset: 0; stroke-linejoin: miter; stroke-miterlimit: 4; fill: rgb(255,255,255); fill-rule: nonzero; opacity: 1;filter: url(#SVGID_17055);"  paint-order="stroke"  transform=" translate(-259.425, 18.2)" d="M 5.25 -36.4 L 5.25 0 L 8.89 0 L 8.89 -15.39 L 9.98 -17.11 L 18.77 0 L 22.67 0 L 12.12 -20.54 L 21.94 -36.4 L 18.04 -36.4 L 8.89 -21.68 L 8.89 -36.4 Z M 48.98 -36.4 L 48.98 0 L 52.62 0 L 52.62 -27.56 L 63.96 0 L 67.6 0 L 67.6 -36.4 L 63.96 -36.4 L 63.96 -8.84 L 52.62 -36.4 Z M 98.07 0 L 101.71 0 L 101.71 -13.52 L 105.35 -13.52 L 111.85 0 L 115.75 0 L 109.1 -13.94 C 112.16 -14.72 114.19 -16.85 114.19 -21.84 L 114.19 -28.08 C 114.19 -35.05 110.29 -36.4 105.35 -36.4 L 98.07 -36.4 Z M 101.71 -16.64 L 101.71 -33.28 L 105.35 -33.28 C 108.52 -33.28 110.55 -32.29 110.55 -27.56 L 110.55 -22.36 C 110.55 -17.63 108.52 -16.64 105.35 -16.64 Z M 173.58 -36.4 L 173.58 0 L 177.22 0 L 177.22 -16.64 L 186.06 -16.64 L 186.06 -19.76 L 177.22 -19.76 L 177.22 -33.28 L 188.66 -33.28 L 188.66 -36.4 Z M 222.77 -36.4 L 214.45 -36.4 L 214.45 -33.28 L 216.79 -33.28 L 216.79 -3.12 L 214.45 -3.12 L 214.45 0 L 222.77 0 L 222.77 -3.12 L 220.43 -3.12 L 220.43 -33.28 L 222.77 -33.28 Z M 251.68 -36.4 L 251.68 0 L 264.68 0 L 264.68 -3.12 L 255.32 -3.12 L 255.32 -36.4 Z M 313.77 -36.4 L 308.57 -36.4 L 302.38 -14.14 L 296.19 -36.4 L 290.99 -36.4 L 290.99 0 L 294.63 0 L 294.63 -28.91 L 300.51 -7.8 L 304.25 -7.8 L 310.13 -28.91 L 310.13 0 L 313.77 0 Z M 387.97 -27.56 L 387.97 -22.36 L 391.61 -22.36 L 391.61 -28.6 C 391.61 -35.57 387.71 -36.92 382.77 -36.92 C 377.88 -36.92 373.93 -35.57 373.93 -28.6 L 373.93 -7.8 C 373.93 -0.83 377.88 0.52 382.77 0.52 C 387.71 0.52 391.61 -0.94 391.61 -7.8 L 391.61 -9.98 L 387.97 -9.98 L 387.97 -8.84 C 387.97 -4.11 385.94 -3.12 382.77 -3.12 C 379.6 -3.12 377.57 -4.11 377.57 -8.84 L 377.57 -27.56 C 377.57 -32.29 379.6 -33.28 382.77 -33.28 C 385.94 -33.28 387.97 -32.29 387.97 -27.56 Z M 427.54 -36.4 L 419.22 -36.4 L 419.22 -33.28 L 421.56 -33.28 L 421.56 -3.12 L 419.22 -3.12 L 419.22 0 L 427.54 0 L 427.54 -3.12 L 425.2 -3.12 L 425.2 -33.28 L 427.54 -33.28 Z M 469.98 -36.4 L 452.82 -36.4 L 452.82 -33.28 L 459.58 -33.28 L 459.58 0 L 463.22 0 L 463.22 -33.28 L 469.98 -33.28 Z M 501.44 -14.04 L 501.44 0 L 505.08 0 L 505.08 -14.04 L 513.6 -36.4 L 509.96 -36.4 L 503.26 -18.82 L 496.55 -36.4 L 492.91 -36.4 Z" stroke-linecap="round" />
</g>
</g>
</g>
<g transform="matrix(1.714707233213267 0.059878896036873006 -0.059878896036873006 1.714707233213267 654.1850907156962 421.7251872507021)" id="shape-2f2e458c-3e59-4592-8289-e69f8145e1cc"  >
<g style=""  paint-order="stroke"   >
		<g transform="matrix(1 0 0 1 0 0)" id="Path-1"  >
<path style="stroke: none; stroke-width: 1; stroke-dasharray: none; stroke-linecap: butt; stroke-dashoffset: 0; stroke-linejoin: miter; stroke-miterlimit: 4; fill: rgb(255,255,255); fill-rule: nonzero; opacity: 1;"  paint-order="stroke"  transform=" translate(-124.99999930548474, -85.64775443817015)" d="M 140.8394 108.54235 C 136.55994 114.83395 131.68608 121.10683 126.23416000000002 127.21153 C 94.34860000000002 162.91379 54.59054000000002 180.04031 35.57677000000001 166.87631 C 38.99287000000001 168.17331 42.81009000000001 168.82695999999999 46.96342000000001 168.82695999999999 C 68.31033000000002 168.82695999999999 98.08985000000001 152.20480999999998 122.99623000000001 124.31844999999998 C 128.31998000000002 118.35772999999999 133.15523000000002 112.17742999999999 137.44768000000002 105.91214999999998 L 140.8394 108.54235 z M 156.21863 67.40443 C 155.55930999999998 69.76054 154.79029 72.14465 153.92118 74.54801 C 153.88998999999998 74.93818 153.85792999999998 75.35061 153.82728 75.73247 C 153.48225 80.02934 153.18475 83.76724 153.08828 87.07628000000001 C 163.53101 64.44227000000001 165.06083999999998 43.878180000000015 155.56895 32.818700000000014 C 159.90891 41.29762 160.1899 53.21692 156.21863 67.40443 z M 142.2984 28.37547 C 143.93194 29.7403 155.68305999999998 40.263059999999996 154.88584999999998 59.59297 C 154.75484999999998 62.75626 154.57554999999996 65.71206000000001 154.38067999999998 68.49367000000001 C 154.52731999999997 68.00095 154.68780999999998 67.50478000000001 154.82509 67.01435000000001 C 159.90035 48.88206000000001 157.92167999999998 34.63430000000001 149.25657999999999 26.894920000000006 C 146.98191 24.863440000000004 144.32829999999998 23.364250000000006 141.36747 22.360960000000006 C 141.82149 24.26728 142.13896 26.26997 142.2984 28.37547 z M 121.91644 123.35456 C 127.22004 117.41637 132.03296 111.26098 136.30209 105.02378 L 135.82995 104.65765 C 135.66671 104.53045 135.57272 104.34671 135.55364 104.15592000000001 C 133.65554 102.21471000000001 132.89985000000001 98.96882000000001 132.85718 94.75305 C 128.25133 102.52706 122.54563 110.37005 115.8151 117.90619000000001 C 94.65829 141.59498000000002 69.35618 155.70706 51.202690000000004 155.70706 C 45.533390000000004 155.70706 40.567840000000004 154.32182 36.63711000000001 151.43175000000002 C 34.51191000000001 151.71619 32.448800000000006 151.86141000000003 30.459280000000007 151.86141000000003 C 27.672460000000008 151.86141000000003 25.031220000000005 151.57609000000002 22.562050000000006 150.99804000000003 C 23.924500000000005 155.12461000000002 26.090330000000005 158.64909000000003 29.146300000000007 161.37876000000003 C 47.18602 177.48926 88.80147 160.43321 121.91644 123.35456 z M 114.73533 116.94229 C 122.0523 108.74975 128.15611 100.20292 132.93077 91.79971 C 133.08437999999998 89.05256 133.45696999999998 85.98484 133.97072 82.65715 C 133.51598 83.62837 133.04128 84.60834 132.54044 85.59891 C 132.44292 85.79183 132.26484 85.93034 132.05425 85.97839 C 132.00126 85.99041000000001 131.94755 85.99606 131.89455 85.99606 C 131.73626000000002 85.99606 131.58008 85.94376 131.45217000000002 85.84554 L 125.75611000000002 81.44691 C 125.19467000000002 82.3729 124.61308000000002 83.29908 124.02514000000002 84.22586 L 130.09821000000002 88.91528 C 130.38228000000004 89.13434 130.46213000000003 89.52796 130.28759000000002 89.84101 C 126.40518000000003 96.77691999999999 121.61189000000002 103.66123999999999 116.04195000000003 110.29964 C 115.89920000000002 110.46924 115.69427000000003 110.55828 115.48722000000002 110.55828 C 115.33317000000002 110.55828 115.17699000000002 110.50881 115.04555000000002 110.40705 L 108.34098000000002 105.22968 C 107.72716000000001 105.93811000000001 107.12093000000002 106.64875 106.49208000000002 107.35285 C 106.39201000000001 107.46486 106.29033000000001 107.57297 106.19016000000002 107.68463 L 112.84570000000002 112.82384 C 113.00470000000003 112.94680000000001 113.10504000000002 113.12911 113.12412000000002 113.32981000000001 C 113.14250000000001 113.52909000000001 113.07678000000001 113.72836000000001 112.94322000000003 113.87818000000001 C 111.50728000000002 115.48796000000002 110.14695000000003 116.96065000000002 108.78380000000003 118.37821000000001 C 104.28658000000003 123.05916 99.75121000000003 127.30903 95.30418000000003 131.01195 C 95.17062000000003 131.12361 95.00597000000003 131.18015000000003 94.84132000000002 131.18015000000003 C 94.68515000000002 131.18015000000003 94.52968000000003 131.13068 94.39894000000002 131.02892000000003 L 87.52399000000003 125.71984000000003 C 86.66177000000003 126.43754000000003 85.79805000000003 127.14289000000004 84.93274000000002 127.83374000000003 L 91.51010000000002 132.91289000000003 C 91.68747000000002 133.04997000000003 91.79135000000002 133.26056000000003 91.79135000000002 133.48528000000005 C 91.79135000000002 133.70859000000004 91.68747000000002 133.92058000000006 91.51010000000002 134.05768000000003 C 84.46113000000003 139.50606000000005 77.45667000000002 143.71919000000003 70.69178000000002 146.57976000000002 C 70.60062000000002 146.61792000000003 70.50522000000002 146.63629000000003 70.40982000000002 146.63629000000003 C 70.25223000000003 146.63629000000003 70.09606000000002 146.58542000000003 69.96744000000002 146.48506000000003 L 63.94932000000003 141.83769000000004 C 62.881550000000026 142.41238000000004 61.818200000000026 142.96199000000004 60.759080000000026 143.48961000000003 L 65.66810000000002 147.28078000000002 C 65.88010000000003 147.44472000000002 65.98468000000003 147.71184000000002 65.93875000000003 147.97614000000002 C 65.89281000000003 148.24042000000003 65.70484000000003 148.45807000000002 65.44974000000003 148.54146000000003 C 59.440270000000034 150.49751000000003 54.35370000000003 151.13634000000002 50.27484000000003 151.13634000000002 C 47.09821000000003 151.13634000000002 44.53752000000003 150.74829000000003 42.62105000000003 150.29444 C 41.313280000000034 150.60926 40.02070000000003 150.88512 38.751270000000034 151.10551 C 55.13449 161.24446 88.15363 146.70238 114.73533 116.94229 z M 105.41231 106.38897 C 126.88925 82.34226 139.58145000000002 55.69775 140.93869 35.539019999999994 C 141.01669 33.262319999999995 141.04478 31.010179999999995 140.94691 28.828359999999993 C 140.94654 28.819609999999994 140.95291 28.81263999999999 140.95282 28.803979999999992 C 140.47583 22.049859999999992 138.44496 16.30635999999999 134.74823 11.998449999999991 C 139.08759 20.47726999999999 139.36795 32.39594999999999 135.39748 46.58258999999999 C 130.21552 65.09859999999999 118.41634 85.31130999999999 102.17438 103.4973 C 77.26871 131.38368 47.48918 148.00441 26.14228 148.00441 C 21.98657 148.00441 18.16705 147.34995 14.74927 146.05145000000002 C 33.758 159.21979 73.52189 142.09573 105.41231 106.38897 z M 8.32445 140.55617 C -0.3413699999999995 132.81679 -2.3186199999999992 118.56903000000001 2.7559400000000007 100.43745000000001 C 7.87996 82.1292 19.56747 62.12071 35.66528 44.09654 C 60.30877 16.50343 89.65794 0 110.49676 0 C 117.6595 0 123.8202 1.95181 128.43471 6.07307 C 137.10054 13.81245 139.07849 28.06021 134.00394 46.1925 C 128.87992 64.50004 117.19239999999999 84.50923 101.09459 102.5334 C 67.98173 139.61066 26.36558 156.66953 8.32445 140.55617 z M 66.28291 39.6601 C 63.82018 37.46096 59.84732 37.31044 55.09924 39.23893 C 50.51935 41.09816 45.705560000000006 44.68872 41.54401 49.34776 C 32.68951 59.26155 29.68477 70.53779 34.702799999999996 75.02016 C 36.05394 76.22644000000001 37.82837 76.79954000000001 39.874869999999994 76.79954000000001 C 45.42641999999999 76.79954000000001 52.972179999999994 72.57651000000001 59.44238999999999 65.33250000000001 C 63.60322999999999 60.67347000000001 66.62845999999999 55.48585000000001 67.96051999999999 50.72576000000001 C 69.34206 45.78971 68.74634 41.85995 66.28291 39.6601 z M 81.5843 100.31448 C 82.96583 95.37773 82.37011 91.44867 79.90668 89.24883 C 77.44395999999999 87.04899 73.47251 86.89988 68.72231 88.82766 C 64.14241999999999 90.6869 59.32862999999999 94.27674999999999 55.16779 98.93648999999999 C 51.00695 103.59622999999999 47.981719999999996 108.78314999999999 46.648959999999995 113.54323 C 45.26743 118.47856999999999 45.86315 122.40903999999999 48.32657999999999 124.60817 C 49.643089999999994 125.78407 51.39137999999999 126.37483 53.458369999999995 126.37483 C 55.258239999999994 126.37483 57.30049999999999 125.92681 59.510239999999996 125.02934 C 64.09013 123.17081 68.90393 119.58096 73.06546999999999 114.92122 C 77.22631 110.26149 80.25154 105.07458 81.5843 100.31448 z M 64.44347 69.80003 C 60.70734 73.98419000000001 59.50883 78.80576 61.715740000000004 80.77665 C 62.32842 81.32431 63.1319 81.59921 64.07317 81.59921 C 64.85756 81.59921 65.73736000000001 81.40841 66.68147 81.02468999999999 C 68.59087000000001 80.24946999999999 70.59215 78.75983 72.3157 76.82992999999999 C 76.05254000000001 72.64576999999998 77.25104 67.82419999999999 75.04412 65.8526 C 72.83722 63.88101 68.18101 65.61517 64.44347 69.80003 z M 42.92272 87.02991 C 40.460699999999996 84.83007 36.48855 84.67955 31.738349999999997 86.60874 C 27.158459999999998 88.46797 22.344669999999997 92.05852999999999 18.183119999999995 96.71757 C 14.022279999999995 101.37731 10.997049999999994 106.56423 9.664989999999996 111.32431 C 8.283459999999996 116.25965 8.879179999999996 120.18871 11.342609999999995 122.38926 C 12.659119999999994 123.56514999999999 14.407409999999995 124.15590999999999 16.474399999999996 124.15590999999999 C 18.274269999999994 124.15590999999999 20.316529999999997 123.70788999999999 22.526269999999997 122.81042 C 27.106159999999996 120.9519 31.919949999999996 117.36204 36.0815 112.7023 C 40.24234 108.04256 43.26757 102.85564 44.60033 98.09554999999999 C 45.98187 93.15952 45.38615 89.22975 42.92272 87.02991 z M 110.24942 73.28812 C 119.10322 63.37433000000001 122.10866 52.097390000000004 117.09064000000001 47.61502 C 112.07191 43.134060000000005 101.20484 47.38888 92.35104000000001 57.30268 C 88.1902 61.961710000000004 85.16497000000001 67.14933 83.83221000000002 71.90943 C 82.45068000000002 76.84547 83.04640000000002 80.77524 85.50983000000002 82.97508 C 86.82634000000002 84.15097 88.57392000000002 84.74103000000001 90.64162000000002 84.74103000000001 C 92.44149000000002 84.74103000000001 94.48375000000001 84.29371 96.69420000000002 83.39624 C 101.27409 81.53701 106.08788 77.94716 110.24942 73.28812 z M 110.72289 11.11582 C 105.70487 6.636979999999999 94.83850000000001 10.8911 85.98330000000001 20.80348 C 81.82246 25.46252 78.79723000000001 30.65014 77.46446000000002 35.41022 C 76.08293000000002 40.346270000000004 76.67865000000002 44.276030000000006 79.14208000000002 46.47587 C 80.45859000000002 47.65176 82.20617000000001 48.24182 84.27388000000002 48.24182 C 86.07375000000002 48.24182 88.11600000000001 47.7945 90.32645000000002 46.89704 C 94.90634000000003 45.03781 99.72013000000003 41.44725 103.88168000000002 36.78821 C 112.73618 26.87443 115.74091 15.59819 110.72289 11.11582 z M 170.35049 128.07932 C 170.2149 128.1037 170.10412 128.17329999999998 170.00811000000002 128.25854999999999 C 168.85279000000003 127.84858999999999 167.74493 127.31223999999999 166.70083000000002 126.64390999999999 C 175.09829000000002 123.97228 183.34542000000002 120.43436 191.2324 116.09429999999999 C 191.43874000000002 115.97981999999999 191.57725000000002 115.77347999999999 191.6027 115.53885999999999 C 191.62814 115.30424999999998 191.5391 115.07245999999999 191.36244 114.91699999999999 L 174.01384 99.61912999999998 C 173.76227 99.39865999999998 173.39621 99.37886999999998 173.12344 99.56683999999998 C 157.71577 110.23330999999999 148.36131 111.28006999999998 146.863 111.38137999999998 L 144.02813 109.18312999999998 C 151.08833 108.74940999999998 174.0958 102.19598999999998 222.18508 45.859409999999976 L 246.76824 70.19240999999997 C 210.38884 120.33587 170.74913 128.00749 170.35049 128.07932 z M 219.56964 95.46253 C 219.56822 95.25619 219.47919 95.06115 219.32513 94.92405 L 199.51309 77.45178999999999 C 199.22337000000002 77.19667999999999 198.78241 77.21152 198.51387 77.49206999999998 C 191.26633 84.99542999999998 184.10075 91.42748999999998 177.21503 96.60874999999999 C 177.04261000000002 96.73877999999999 176.93660000000003 96.93946999999999 176.9267 97.15570999999998 C 176.91823000000002 97.37194999999998 177.00585 97.58111999999998 177.16698000000002 97.72526999999998 L 194.75725000000003 113.48953999999998 C 194.89435000000003 113.61249999999998 195.06677000000002 113.67467999999998 195.24060000000003 113.67467999999998 C 195.36781000000002 113.67467999999998 195.49641000000003 113.64075999999999 195.61232000000004 113.57291999999998 C 203.93681000000004 108.59800999999999 211.91646000000003 102.68746999999998 219.33078000000003 96.00383999999998 C 219.48343 95.86674 219.57104 95.66888 219.56964 95.46253 z M 242.07829 70.20354 C 242.25778 69.91522 242.21397000000002 69.54068000000001 241.97229000000002 69.30254000000001 L 222.6507 50.33073 C 222.50229 50.185860000000005 222.31432 50.11025 222.09102000000001 50.125800000000005 C 221.88468 50.140640000000005 221.69386 50.24311000000001 221.56809 50.40847000000001 C 215.006 59.01281000000001 208.39586 66.91402000000001 201.92141 73.89091 C 201.78857000000002 74.03366000000001 201.71931 74.22304000000001 201.72921 74.41667000000001 C 201.73767999999998 74.61030000000001 201.82389 74.79262000000001 201.96806 74.92264000000002 L 221.86914000000002 92.75813000000002 C 222.00764 92.88109000000003 222.18007000000003 92.94257000000002 222.35249000000002 92.94257000000002 C 222.53340000000003 92.94257000000002 222.71289000000002 92.87544000000001 222.85281 92.74117000000001 C 235.47806 80.64661 242.01329 70.306 242.07829 70.20354 z M 154.66113 101.31229 C 154.14103 101.62888000000001 149.60495 104.33258000000001 144.806 105.52966 C 143.01248 106.00596 141.43167000000003 106.19675000000001 140.05298000000002 106.10064000000001 L 142.08826000000002 107.67880000000001 C 143.89476000000002 107.95007000000001 165.94762000000003 109.53918000000002 221.15496000000002 44.83967000000001 L 218.74992 42.45918000000001 C 214.64842 47.85811 186.15573 84.42444 154.66113 101.31229 z M 250 73.3913 L 247.80669 71.22034000000001 C 215.95125000000002 115.03138000000001 181.56993 126.63913000000001 172.76543 128.98748 C 175.64128 129.47356 178.64443 129.2198 181.43805 128.13726 C 219.56398 113.38071 246.59953 77.99804 250 73.3913 z M 152.38426 75.61658 C 152.76163000000003 70.91302999999999 153.18986 65.58195 153.43861 59.53362 C 154.10711 43.333349999999996 145.67166 33.57785 142.44998 30.46217 C 142.73335 43.00334 140.09114000000002 57.10552 137.74783000000002 69.61206 C 134.71060000000003 85.82153 132.08816000000002 99.81983 137.13870000000003 103.62875 C 137.79660000000004 104.12483 138.58665000000002 104.44848 139.51309000000003 104.59828999999999 C 141.12781000000004 104.80462999999999 142.97644000000003 104.54033999999999 144.79751000000005 104.04851 C 146.74154000000004 103.49306999999999 148.97885000000005 102.58148 151.52213000000003 101.30948 C 152.14399000000003 100.99853999999999 152.76444000000004 100.67912999999999 153.38489000000004 100.35265 C 150.88472 94.30077 151.5179 86.40522 152.38426 75.61658 z" stroke-linecap="round" />
</g>
</g>
</g>
</svg>